<mxfile host="app.diagrams.net" modified="2024-05-14T02:01:33.674Z" agent="Mozilla/5.0 (Windows NT 10.0; Win64; x64) AppleWebKit/537.36 (KHTML, like Gecko) Chrome/124.0.0.0 Safari/537.36" version="24.4.0" etag="6zQuuuiQ4f-BO5aCLYyq" type="github">
  <diagram name="Halaman-1" id="N_xXvulFXAG_0aKxfrb5">
    <mxGraphModel>
      <root>
        <mxCell id="0" />
        <mxCell id="1" parent="0" />
      </root>
    </mxGraphModel>
  </diagram>
</mxfile>
